# xmcd
#
# Track frame offsets: 
#        150
#        16163
#        32683
#        45016
#        58517
#        75282
#        92557
#        107670
#        123881
#        140471
#        158615
#
# Disc length: 2416 seconds
#
# Revision: 0
# Processed by: cddbd v1.5.2PL0 Copyright (c) Steve Scherf et al.
# Submitted via: ExactAudioCopyFreeDBPlugin 1.0
#
DISCID=6d096e0b
DTITLE=David Waddell - Last of the Outlaws
DYEAR=2016
DGENRE=Country
TTITLE0=Caravan of Gypsies
TTITLE1=Devil in the Bottle
TTITLE2=The Lying Politician Blues
TTITLE3=Truck Stop Girl
TTITLE4=Waco Saturday Night
TTITLE5=The Game of Love
TTITLE6=Things Dreams Are Made Of
TTITLE7=Rain Falls Down
TTITLE8=High Flying Train
TTITLE9=Tennessee - Mexico
TTITLE10=Last of the Outlaws
EXTD=
EXTT0=
EXTT1=
EXTT2=
EXTT3=
EXTT4=
EXTT5=
EXTT6=
EXTT7=
EXTT8=
EXTT9=
EXTT10=
PLAYORDER=
